<?xml version="1.0" standalone="no"?>
<!DOCTYPE svg PUBLIC "-//W3C//DTD SVG 20010904//EN"
 "http://www.w3.org/TR/2001/REC-SVG-20010904/DTD/svg10.dtd">
<svg version="1.0" xmlns="http://www.w3.org/2000/svg"
 width="1280.000000pt" height="1274.000000pt" viewBox="0 0 1280.000000 1274.000000"
 preserveAspectRatio="xMidYMid meet">
<metadata>
Created by potrace 1.15, written by Peter Selinger 2001-2017
</metadata>
<g transform="translate(0.000000,1274.000000) scale(0.100000,-0.100000)"
fill="#66B3FF" stroke="none">
<path d="M5889 12556 c-2 -2 -416 -6 -919 -10 -946 -7 -1467 -18 -1675 -37
-250 -22 -604 -95 -825 -171 -208 -71 -433 -194 -534 -291 -24 -23 -98 -91
-164 -150 -615 -552 -1027 -1170 -1374 -2067 -71 -182 -267 -764 -302 -897
l-25 -93 198 0 198 0 108 173 c251 401 432 643 684 916 269 290 527 464 864
580 329 113 642 159 1142 168 l310 5 24 -22 c22 -21 23 -28 17 -99 -22 -270
-28 -337 -37 -431 -6 -58 -13 -145 -15 -195 -2 -49 -8 -115 -13 -145 -5 -30
-9 -62 -10 -70 -1 -54 -11 -200 -19 -285 -5 -55 -10 -109 -10 -120 1 -11 -4
-76 -10 -145 -6 -69 -10 -136 -10 -150 0 -14 -7 -106 -16 -205 -17 -202 -36
-452 -41 -565 -2 -41 -9 -123 -14 -181 -6 -59 -8 -116 -6 -127 2 -12 0 -49 -5
-84 -5 -35 -12 -117 -15 -183 -3 -66 -8 -142 -9 -170 -2 -27 -7 -99 -10 -160
-4 -60 -11 -159 -16 -220 -5 -60 -14 -171 -20 -245 -33 -409 -66 -664 -156
-1205 -157 -934 -313 -1471 -578 -1980 -145 -278 -257 -455 -574 -899 -193
-272 -412 -590 -412 -601 0 -4 -13 -25 -28 -48 -95 -140 -183 -365 -219 -557
-23 -128 -24 -376 -1 -480 63 -288 216 -510 464 -676 210 -140 424 -200 684
-191 290 10 463 90 700 328 238 238 438 564 571 929 49 137 65 187 128 413
203 724 436 1959 611 3237 104 757 168 1316 205 1765 44 538 206 2758 258
3536 8 114 17 211 21 218 5 8 412 11 1548 11 l1541 0 -6 -67 c-3 -38 -15 -135
-27 -218 -112 -797 -241 -2015 -350 -3300 -17 -198 -37 -436 -46 -530 -29
-316 -25 -2506 5 -2912 67 -875 176 -1477 357 -1973 51 -139 178 -390 255
-505 276 -410 643 -704 1059 -845 169 -58 254 -71 486 -77 392 -10 606 33 909
182 241 119 476 288 682 493 418 413 682 897 879 1610 92 331 220 958 240
1171 l7 71 -164 0 c-90 0 -180 -3 -200 -6 l-36 -6 -33 -152 c-76 -353 -150
-530 -306 -731 -176 -228 -448 -402 -724 -463 -380 -85 -761 -42 -1119 124
-378 176 -658 529 -804 1014 -60 196 -88 343 -100 515 -15 230 -15 1665 1
1985 49 989 101 1630 213 2635 27 243 132 1089 169 1355 16 118 41 303 56 410
15 107 31 201 36 208 8 9 319 12 1493 12 815 0 1496 3 1513 6 l31 6 6 597 c3
328 7 722 10 877 5 238 3 286 -10 317 -10 25 -22 37 -35 37 -10 0 -23 8 -29
18 -9 16 -179 17 -3319 19 -1820 1 -3311 1 -3313 -1z"/>
<path d="M7644 5970 c0 -69 1 -97 3 -62 2 34 2 90 0 125 -2 34 -3 6 -3 -63z"/>
<path d="M7632 5645 c0 -16 2 -22 5 -12 2 9 2 23 0 30 -3 6 -5 -1 -5 -18z"/>
</g>
</svg>
