<?xml version="1.0" standalone="no"?>
<!DOCTYPE svg PUBLIC "-//W3C//DTD SVG 20010904//EN"
 "http://www.w3.org/TR/2001/REC-SVG-20010904/DTD/svg10.dtd">
<svg version="1.0" xmlns="http://www.w3.org/2000/svg"
 width="1312.000000pt" height="1312.000000pt" viewBox="0 0 1312.000000 1312.000000"
 preserveAspectRatio="xMidYMid meet">
<metadata>
Created by potrace 1.14, written by Peter Selinger 2001-2017
</metadata>
<g transform="translate(0.000000,1312.000000) scale(0.100000,-0.100000)"
fill="#000000" stroke="none">
<path d="M3706 10553 c-2 -2 -33 -6 -68 -8 -34 -2 -63 -4 -63 -5 0 -1 -18 -3
-40 -5 -22 -2 -60 -7 -85 -10 -25 -3 -56 -7 -70 -9 -14 -1 -31 -6 -38 -10 -7
-4 -12 -5 -12 -3 0 2 -33 -2 -72 -10 -40 -7 -86 -16 -103 -19 -16 -3 -48 -10
-70 -16 -22 -6 -53 -13 -70 -15 -16 -3 -38 -9 -48 -15 -10 -5 -21 -7 -24 -4
-4 3 -11 2 -17 -3 -6 -5 -24 -11 -41 -14 -16 -3 -64 -17 -105 -32 -41 -15 -82
-27 -90 -27 -8 -1 -19 -4 -25 -8 -5 -4 -28 -13 -50 -20 -22 -7 -56 -20 -75
-28 -19 -9 -38 -15 -42 -14 -5 1 -8 -3 -8 -8 0 -5 -3 -9 -7 -8 -10 3 -55 -14
-151 -58 -41 -19 -78 -34 -83 -34 -5 0 -9 -4 -9 -10 0 -5 -3 -9 -7 -8 -8 2
-153 -71 -233 -118 -112 -65 -165 -99 -168 -106 -2 -4 -8 -8 -12 -8 -12 0
-104 -62 -108 -72 -2 -4 -10 -8 -18 -8 -8 0 -17 -6 -20 -14 -3 -8 -17 -17 -30
-20 -14 -4 -22 -11 -19 -16 3 -6 1 -10 -5 -10 -10 0 -91 -59 -147 -106 -11
-11 -41 -35 -64 -54 -92 -74 -437 -410 -430 -418 2 -2 -14 -23 -35 -46 -22
-23 -55 -62 -74 -86 -19 -24 -41 -49 -48 -56 -6 -7 -12 -16 -12 -21 0 -5 -8
-16 -17 -25 -28 -26 -43 -46 -43 -57 0 -5 -3 -11 -7 -13 -13 -5 -155 -218
-146 -218 4 0 3 -4 -3 -8 -14 -10 -104 -156 -104 -169 0 -6 -7 -16 -15 -23 -8
-7 -13 -16 -10 -20 3 -5 1 -12 -5 -15 -13 -8 -75 -136 -72 -147 1 -5 -2 -8 -7
-8 -10 0 -27 -39 -23 -52 1 -5 -3 -8 -8 -8 -6 0 -10 -9 -10 -20 0 -11 -4 -20
-10 -20 -5 0 -10 -7 -10 -15 0 -8 -11 -39 -25 -69 -14 -30 -25 -57 -25 -59 0
-3 -8 -22 -17 -43 -9 -22 -17 -41 -18 -44 0 -3 -16 -50 -35 -105 -19 -55 -34
-102 -35 -105 0 -3 -3 -9 -6 -15 -5 -8 -14 -44 -23 -95 -1 -3 -4 -10 -8 -16
-4 -6 -10 -24 -12 -40 -3 -16 -10 -44 -15 -62 -5 -18 -10 -35 -10 -37 -1 -3
-1 -6 -2 -7 -4 -14 -19 -95 -24 -128 -1 -8 -6 -23 -10 -32 -4 -10 -5 -25 -1
-33 3 -8 2 -15 -3 -15 -4 0 -8 -6 -8 -12 -1 -15 -11 -91 -18 -128 -16 -86 -19
-179 -20 -560 0 -405 4 -550 15 -550 5 0 12 -58 14 -115 1 -16 4 -32 7 -35 4
-3 9 -21 12 -40 13 -81 18 -106 24 -120 3 -8 7 -26 9 -40 2 -14 6 -32 8 -40 8
-39 18 -76 23 -90 4 -8 7 -22 8 -30 1 -8 4 -22 7 -30 3 -8 18 -55 33 -105 14
-49 29 -97 31 -105 3 -8 5 -17 6 -20 0 -3 5 -14 11 -25 6 -11 12 -26 14 -32 6
-27 10 -39 21 -65 21 -48 33 -83 32 -86 0 -1 6 -15 14 -30 8 -15 22 -45 31
-67 23 -54 148 -309 155 -315 4 -4 14 -22 54 -95 6 -10 17 -25 23 -33 7 -7 13
-20 13 -28 0 -8 5 -14 10 -14 6 0 10 -6 10 -14 0 -7 7 -19 15 -26 9 -7 23 -28
31 -46 9 -19 20 -34 25 -34 5 0 9 -5 9 -10 0 -10 21 -43 57 -89 7 -9 33 -45
60 -81 26 -36 50 -67 53 -70 3 -3 17 -21 31 -40 104 -138 373 -412 534 -545
27 -22 57 -48 67 -58 10 -9 22 -17 26 -17 4 0 14 -9 22 -20 8 -11 19 -20 25
-20 5 0 24 -14 42 -30 18 -17 36 -30 41 -30 5 0 17 -9 27 -20 10 -11 24 -20
32 -20 7 0 13 -5 13 -10 0 -6 12 -16 27 -23 16 -6 32 -17 36 -24 5 -8 12 -11
18 -8 5 4 9 1 9 -4 0 -6 6 -11 14 -11 8 0 16 -4 18 -9 4 -13 183 -118 327
-193 64 -33 122 -65 129 -71 6 -5 12 -6 12 -3 0 4 12 1 28 -8 27 -14 103 -49
112 -51 3 -1 16 -7 30 -12 74 -32 218 -86 236 -88 12 -2 35 -10 52 -19 18 -9
34 -16 37 -16 3 0 6 0 8 -1 1 0 13 -2 27 -5 14 -2 32 -7 40 -11 16 -7 25 -9
55 -17 11 -3 34 -9 52 -15 17 -5 34 -7 37 -3 3 3 6 1 6 -5 0 -5 6 -10 13 -10
18 -2 68 -11 97 -18 14 -3 34 -8 45 -10 30 -6 77 -14 105 -19 14 -3 27 -5 30
-6 3 -2 9 -2 14 -1 5 1 16 -1 25 -5 9 -3 30 -8 46 -9 17 -1 53 -6 80 -10 28
-4 64 -8 81 -10 17 -1 36 -5 42 -9 7 -4 12 -2 12 6 0 8 3 9 8 3 4 -5 41 -12
82 -14 146 -9 685 -2 685 9 0 1 15 3 130 15 79 8 109 12 113 15 1 2 11 4 22 5
11 1 21 3 23 4 1 2 13 4 27 6 86 12 132 21 138 25 1 2 10 3 20 4 9 1 26 5 37
9 11 3 33 8 48 11 15 3 54 12 85 22 31 9 62 17 67 19 6 1 17 5 25 8 24 9 74
20 83 19 4 -1 7 2 7 8 0 6 3 9 8 8 14 -5 102 25 102 34 0 5 4 6 10 3 5 -3 44
9 86 26 43 18 83 32 91 32 7 0 13 4 13 9 0 4 5 8 10 8 6 0 26 7 46 15 19 8 35
13 37 12 1 -1 17 8 35 21 17 13 32 21 32 17 0 -8 244 117 248 127 2 5 8 6 13
2 5 -3 9 0 9 6 0 6 5 8 10 5 6 -3 10 -3 10 2 0 4 29 24 65 43 36 19 65 38 65
43 0 4 9 7 19 7 10 0 21 7 25 15 3 8 12 15 20 15 8 0 16 3 18 8 4 10 127 92
138 92 5 0 13 6 17 13 4 7 24 24 43 37 19 13 42 30 50 37 8 7 41 34 72 59 l57
46 33 -23 c18 -13 40 -31 49 -39 77 -71 452 -325 497 -336 12 -4 22 -10 22
-15 0 -5 6 -9 14 -9 8 0 16 -3 18 -7 4 -10 269 -141 368 -183 41 -17 84 -35
95 -40 34 -14 59 -23 78 -26 10 -2 30 -12 44 -21 15 -10 30 -17 33 -16 6 3 36
-5 65 -17 28 -11 225 -69 255 -74 14 -2 25 -5 25 -6 0 -2 -5 -1 125 -29 52
-11 111 -23 130 -26 19 -3 42 -8 50 -10 8 -2 35 -7 60 -10 25 -2 61 -7 80 -10
92 -13 140 -17 192 -19 32 0 58 -4 58 -7 0 -7 585 -2 638 5 18 2 62 7 98 11
79 8 101 12 116 21 7 5 8 3 3 -6 -5 -9 -4 -11 3 -6 13 8 37 13 92 22 19 2 46
7 60 10 14 2 39 7 55 10 43 8 60 12 60 14 0 1 11 3 25 5 26 4 203 49 256 66
17 5 40 11 50 14 18 3 153 49 184 62 8 3 17 7 20 7 3 1 19 7 35 13 44 18 89
36 95 38 12 4 50 20 110 47 36 16 67 29 70 30 15 3 146 74 152 83 4 5 8 6 8 2
0 -10 112 52 122 67 4 6 8 7 8 2 0 -5 9 -1 20 9 11 10 20 14 20 9 0 -5 4 -4 8
2 4 6 26 21 50 34 23 13 42 27 42 32 0 4 3 7 8 6 6 -2 59 29 72 42 3 3 17 11
33 19 15 8 27 18 27 23 0 4 4 8 10 8 5 0 29 15 53 32 24 18 63 47 86 63 24 17
52 40 64 52 11 13 24 23 28 23 7 0 62 45 106 88 13 12 26 22 28 22 8 0 205
191 290 282 118 126 333 391 333 411 1 5 11 17 23 28 12 10 18 19 14 19 -5 0
1 10 11 22 11 13 36 48 55 78 18 30 37 57 41 58 5 2 8 12 8 23 0 10 4 19 9 19
5 0 21 24 36 53 15 28 33 55 39 59 6 4 7 8 2 8 -5 0 -4 6 1 13 22 26 73 127
66 127 -4 0 -3 4 3 8 9 5 73 129 79 152 3 9 23 56 54 125 18 39 32 71 32 72
-1 4 10 35 22 68 7 17 12 32 12 35 1 3 9 22 18 43 9 21 16 41 15 45 -1 4 2 14
5 22 8 19 58 189 62 209 2 9 4 16 5 16 1 0 4 11 7 25 6 32 11 54 13 60 1 3 3
10 5 15 1 6 3 12 4 15 2 3 4 14 6 25 2 11 7 36 11 55 4 19 8 43 9 53 2 9 4 20
5 25 1 4 3 12 4 17 13 76 20 123 22 138 1 9 2 18 4 20 1 1 3 13 4 27 2 14 7
59 11 100 9 77 14 808 7 824 -3 5 -6 29 -8 55 -4 47 -11 106 -19 151 -7 40
-12 72 -19 115 -3 23 -9 52 -11 65 -3 14 -10 45 -15 70 -5 25 -12 55 -14 68
-3 13 -8 32 -11 42 -3 10 -8 27 -10 38 -6 35 -57 205 -77 262 -11 30 -21 60
-23 65 -1 6 -5 18 -8 28 -8 19 -19 49 -22 57 -1 3 -6 20 -10 38 -4 17 -11 32
-15 32 -4 0 -11 12 -15 27 -3 15 -15 46 -26 70 -10 23 -19 46 -19 51 0 5 -7
15 -15 22 -8 7 -15 23 -15 36 0 13 -4 24 -10 24 -5 0 -10 9 -10 19 0 11 -3 21
-7 23 -5 2 -30 46 -56 98 -56 112 -100 193 -107 200 -3 3 -15 21 -26 40 -48
81 -128 200 -136 200 -4 0 -8 6 -8 13 0 6 -9 23 -20 37 -11 14 -44 57 -72 95
-29 39 -55 72 -58 75 -3 3 -27 32 -55 65 -27 33 -60 70 -72 82 -13 12 -23 25
-23 28 0 14 -287 291 -400 385 -36 30 -67 57 -70 60 -3 3 -36 28 -75 57 -38
29 -82 61 -97 72 -14 12 -31 21 -37 21 -6 0 -11 4 -11 9 0 8 -55 45 -78 53 -6
2 -26 17 -56 43 -6 6 -18 11 -26 13 -8 2 -17 7 -20 10 -3 4 -17 13 -32 21 -16
8 -28 18 -28 23 0 4 -8 8 -17 8 -9 0 -24 6 -32 14 -9 7 -68 40 -131 72 -63 33
-118 64 -122 69 -4 6 -8 6 -8 2 0 -5 -10 -1 -22 7 -12 9 -30 16 -40 16 -10 0
-18 5 -18 11 0 5 -4 8 -9 4 -5 -3 -17 2 -25 11 -9 8 -16 12 -16 8 0 -3 -7 -1
-15 6 -8 7 -15 9 -15 5 0 -4 -6 -2 -13 4 -8 6 -31 17 -53 25 -21 8 -52 20 -69
27 -16 6 -34 13 -40 15 -10 3 -119 41 -145 51 -8 3 -24 8 -35 10 -11 1 -29 7
-40 12 -11 5 -38 14 -60 20 -22 5 -51 14 -65 18 -34 9 -41 11 -74 18 -16 3
-33 8 -36 10 -4 2 -22 7 -41 10 -19 3 -51 10 -72 16 -20 5 -42 7 -47 4 -6 -3
-10 -1 -10 4 0 6 -3 10 -7 9 -5 -1 -30 1 -58 6 -27 4 -66 10 -85 13 -19 3 -46
7 -60 9 -79 13 -140 19 -290 30 -136 10 -445 10 -457 1 -9 -6 -13 -5 -13 2 0
7 -5 9 -11 5 -6 -3 -41 -8 -78 -9 -36 -2 -66 -4 -66 -5 0 -1 -29 -3 -65 -6
-62 -5 -105 -11 -105 -14 0 -1 -16 -3 -35 -4 -19 -2 -51 -6 -70 -9 -19 -4 -52
-9 -74 -12 -21 -3 -42 -7 -46 -10 -4 -3 -24 -7 -43 -9 -20 -3 -53 -9 -74 -15
-21 -6 -49 -12 -63 -15 -25 -5 -33 -7 -105 -26 -22 -6 -49 -13 -61 -15 -12 -3
-39 -11 -62 -19 -22 -8 -43 -12 -46 -9 -3 4 -6 0 -6 -7 0 -7 -2 -11 -5 -8 -3
3 -36 -6 -73 -19 -37 -13 -71 -26 -77 -27 -5 -2 -21 -7 -35 -13 -14 -6 -43
-16 -65 -24 -22 -8 -43 -18 -46 -22 -3 -5 -9 -8 -13 -7 -4 1 -25 -5 -46 -14
-22 -9 -43 -16 -46 -15 -4 0 -10 -4 -14 -11 -4 -6 -16 -12 -28 -13 -12 0 -24
-7 -27 -15 -3 -7 -10 -10 -16 -6 -6 3 -14 3 -18 -2 -10 -14 -191 -105 -191
-97 0 5 -5 0 -11 -10 -6 -9 -14 -15 -20 -12 -5 4 -9 2 -9 -4 0 -5 -10 -13 -22
-17 -13 -4 -38 -19 -57 -33 -19 -14 -37 -26 -40 -25 -11 1 -61 -31 -61 -38 0
-5 -6 -8 -14 -8 -8 0 -21 -6 -28 -13 -7 -7 -28 -22 -45 -32 -18 -11 -33 -23
-33 -27 0 -4 -5 -8 -12 -8 -12 0 -219 -152 -268 -197 -32 -30 -38 -29 -85 12
-22 19 -45 38 -50 43 -6 4 -31 24 -57 45 -25 20 -51 37 -57 37 -6 0 -11 3 -11
8 0 4 -18 18 -40 32 -22 14 -40 28 -40 32 0 5 -6 8 -13 8 -7 0 -22 8 -33 18
-23 19 -50 37 -79 52 -11 6 -40 24 -65 40 -25 17 -57 36 -72 42 -16 7 -28 16
-28 20 0 4 -6 8 -14 8 -8 0 -21 7 -30 15 -8 9 -19 16 -23 17 -15 2 -78 33 -91
46 -7 6 -22 12 -33 12 -10 0 -19 5 -19 11 0 5 -4 7 -10 4 -5 -3 -10 -1 -10 4
0 6 -4 11 -10 11 -5 0 -37 13 -72 29 -106 48 -132 59 -160 66 -16 4 -28 11
-28 16 0 5 -6 9 -14 9 -8 0 -52 14 -98 31 -83 31 -102 37 -116 40 -4 1 -18 6
-32 11 -34 13 -268 78 -305 85 -38 7 -59 11 -65 13 -3 1 -9 3 -15 5 -5 1 -12
3 -15 4 -3 2 -20 4 -39 6 -18 2 -54 8 -80 14 -25 5 -68 13 -96 17 -27 4 -57 8
-65 9 -8 2 -44 6 -80 9 -36 4 -85 9 -110 12 -58 7 -618 13 -624 7z"/>
</g>
</svg>
